Godzilla - Destroy All Monsters (1968) Toho DVDRip, Original Japanese version

 
http://www.imdb.com/title/tt0063172/





General
Complete name                    : Godzilla - Destroy All  Monsters (1968)D_A_M_.Title2.avi
Format                           : AVI
Format/Info                      : Audio Video Interleave
File size                        : 1.31 GiB
Duration                         : 1h 28mn
Overall bit rate                 : 2105 Kbps
Movie name                       : D_A_M_.Title2.DVDRip
Writing application              : Lavf52.33.0
Original source form/Name        : D_A_M_

Video
ID                               : 0
Format                           : MPEG-4 Visual
Format profile                   : Simple@L3
Format settings, BVOP            : No
Format settings, QPel            : No
Format settings, GMC             : No warppoints
Format settings, Matrix          : Default (H.263)
Codec ID                         : XVID
Codec ID/Hint                    : XviD
Duration                         : 1h 28mn
Bit rate                         : 1646 Kbps
Width                            : 720 pixels
Height                           : 284 pixels
Display aspect ratio             : 2.535
Frame rate                       : 29.970 fps
Resolution                       : 24 bits
Colorimetry                      : 4:2:0
Scan type                        : Progressive
Bits/(Pixel*Frame)               : 0.269
Stream size                      : 1.02 GiB (78%)
Writing library                  : XviD 1.2.1 (UTC 2008-12-04)

Audio
ID                               : 1
Format                           : AC-3
Format/Info                      : Audio Coding 3
Codec ID                         : 2000
Duration                         : 1h 28mn
Bit rate mode                    : Constant
Bit rate                         : 448 Kbps
Channel(s)                       : 6 channels
Channel positions                : Front: L C R, Surround: L R, LFE
Sampling rate                    : 48.0 KHz
Stream size                      : 284 MiB (21%)
Alignment                        : Aligned on interleaves
Interleave, duration             : 32 ms (0.96 video frame)
Interleave, preload duration     : 32 ms

